# xmcd CD database file
# Copyright (C) 1997 Ti Kan
# 
# Track frame offsets:
#     150
#     14125
#     27965
#     41352
#     55860
#     69450
#     82012
#     94297
#     109062
#     122570
#     137480
#     151562
#     164090
#     178082
#     191922
#     203522
# 
# Disc length: 2879 seconds
# 
# Revision: 1
# Processed by: cddbd v1.4b41PL1 Copyright (c) Steve Scherf et al.
# Submitted via: DiscPlay 4.0.4
# 
DISCID=d80b3d10
DTITLE=Jimmie Rodgers - Jimmie Rodgers - The Early Years, 1928 - 1929
DYEAR=1900
DGENRE=
TTITLE0=My Little Lady
TTITLE1=Blue Yodel No. 4
TTITLE2=Daddy And Home
TTITLE3=Lullaby Yodel
TTITLE4=You And My Old Guitar
TTITLE5=Desert Blues
TTITLE6=Never No Mo' Blues
TTITLE7=Mississippi Moon
TTITLE8=My Carolina Sunshine Girl
TTITLE9=I'm Lonely And Blue
TTITLE10=I'm Lonely And Blue
TTITLE11=Waiting For A Train
TTITLE12=My Old Pal
TTITLE13=My Little Old Home Down In New Orleans
TTITLE14=Blue Yodel No. 5
TTITLE15=Any Old Time
EXTD=
EXTT0=
EXTT1=
EXTT2=
EXTT3=
EXTT4=
EXTT5=
EXTT6=
EXTT7=
EXTT8=
EXTT9=
EXTT10=
EXTT11=
EXTT12=
EXTT13=
EXTT14=
EXTT15=
PLAYORDER=
